<svg width="2054" height="2398" viewBox="0 0 2054 2398" fill="none" xmlns="http://www.w3.org/2000/svg">
<path d="M1025.98 238.036C1099.54 238.036 1159.24 298.054 1159.24 372.003V1064.2L2047.61 1622.39V1862.46L1159.24 1561.03V2029.9L1340.38 2211.11L1340.29 2397.25L1025.98 2292.23L716.199 2397.63L717.535 2202.13L887.214 2035.56L888.715 1561.14L0.580566 1868.03L2.45648 1622.42L891.491 1058.58L892.922 371.943C892.734 298.089 952.435 238.067 1025.99 238.067L1025.98 238.036Z" fill="white"/>
<line y1="-0.5" x2="190.353" y2="-0.5" transform="matrix(0.964537 -0.263949 0.262288 0.96499 267.058 321.277)" stroke="black"/>
<path d="M1846.77 306.282L1032.36 2.55451C1021.53 -0.851504 1010.69 -0.851504 999.861 2.55451L185.451 306.282C169.202 313.108 158.358 328.464 158.358 345.523C158.358 362.582 169.186 377.937 185.451 384.764L496.044 500.794V831.84C496.044 848.899 506.872 864.254 523.137 871.081L998.041 1048.55C1003.46 1050.25 1008.87 1051.95 1014.29 1051.95C1019.71 1051.95 1025.12 1050.25 1030.54 1048.55L1505.44 871.081C1521.69 864.255 1532.54 848.9 1532.54 831.84V499.104L1684.22 442.792V594.654C1658.94 606.603 1642.69 632.191 1642.69 659.495C1642.69 686.799 1658.94 712.388 1684.22 724.336L1648.1 801.124C1639.08 818.183 1653.52 836.958 1671.57 836.958H1776.31C1796.18 836.958 1808.81 818.183 1799.79 801.124L1761.87 724.336C1785.34 712.386 1803.39 686.799 1803.39 659.495C1803.39 630.487 1787.14 606.602 1761.87 594.654V413.784L1844.93 383.073C1861.18 376.247 1872.02 360.892 1872.02 343.832C1872.02 326.76 1862.98 311.405 1846.73 306.281L1846.77 306.282ZM1016.12 86.1709L1711.33 345.534L1016.12 603.183L320.901 343.819L1016.12 86.1709ZM1447.71 802.821L1016.12 963.215L584.529 802.821L584.544 531.507L999.851 686.792C1005.27 688.495 1010.68 690.198 1016.1 690.198C1021.52 690.198 1026.93 688.495 1032.35 686.792L1447.66 531.507L1447.71 802.821Z" fill="white"/>
<path d="M1013.88 62.2123L311.062 340.471L575.654 517.544V837.963L964.274 989.741H1104.84L1460.38 837.963V517.544L1724.98 340.471L1013.88 62.2123Z" fill="white" stroke="white"/>
</svg>
