<svg width="50" height="68" viewBox="0 0 50 68" fill="none" xmlns="http://www.w3.org/2000/svg">
<path d="M0.232422 60.2704C0.232422 62.2612 1.02267 64.1708 2.43019 65.5784C3.83771 66.986 5.74742 67.7762 7.73822 67.7762H42.2637C44.2545 67.7762 46.1634 66.9859 47.571 65.5784C48.9786 64.1709 49.7695 62.2612 49.7695 60.2704V21.0523C49.7627 20.5578 49.5602 20.0853 49.2068 19.7387L29.0347 0.693125C28.7018 0.388253 28.2665 0.220644 27.8152 0.223673H7.7383C5.74749 0.223673 3.83785 1.01468 2.43027 2.42222C1.02269 3.82976 0.232502 5.73867 0.232502 7.72947L0.232422 60.2704ZM29.6926 6.41733L43.2026 19.1774H31.5688C31.0637 19.2047 30.57 19.0158 30.2121 18.6579C29.8541 18.2999 29.6653 17.8062 29.6926 17.3011L29.6926 6.41733ZM3.98532 7.73087C3.98532 6.73586 4.38045 5.78103 5.08424 5.07724C5.78803 4.37345 6.74286 3.97832 7.73865 3.97832H25.9393V17.301C25.9143 18.8019 26.499 20.2482 27.56 21.3098C28.6218 22.3708 30.068 22.9555 31.5688 22.9297H46.0178V60.2704C46.0178 61.2662 45.6219 62.2202 44.9181 62.924C44.2143 63.6286 43.2602 64.0237 42.2645 64.0237H7.73896C6.74319 64.0237 5.78835 63.6286 5.08456 62.924C4.38077 62.2202 3.98563 61.2662 3.98563 60.2704L3.98532 7.73087Z" fill="#0C252F"/>
<path d="M9.98836 44.6024H39.9164C40.9531 44.6024 41.7934 43.7621 41.7934 42.7254C41.7934 41.6894 40.9531 40.8491 39.9164 40.8491H9.98836C8.95164 40.8491 8.11133 41.6894 8.11133 42.7254C8.11133 43.7621 8.95162 44.6024 9.98836 44.6024V44.6024Z" fill="#0C252F"/>
<path d="M9.98836 33.3438H25.8441C26.8801 33.3438 27.7204 32.5043 27.7204 31.4676C27.7204 30.4316 26.8801 29.5913 25.8441 29.5913H9.98836C8.95164 29.5913 8.11133 30.4316 8.11133 31.4676C8.11133 32.5043 8.95162 33.3438 9.98836 33.3438Z" fill="#0C252F"/>
<path d="M9.98836 55.8614H39.9164C40.9531 55.8614 41.7934 55.0211 41.7934 53.9852C41.7934 52.9485 40.9531 52.1089 39.9164 52.1089H9.98836C8.95164 52.1089 8.11133 52.9484 8.11133 53.9852C8.11133 55.0211 8.95162 55.8614 9.98836 55.8614V55.8614Z" fill="#0C252F"/>
</svg>
