<svg width="11" height="12" viewBox="0 0 11 12" fill="none" xmlns="http://www.w3.org/2000/svg">
<path d="M5.50005 1.27274C6.60528 1.27274 7.64318 1.65945 8.42205 2.36222C9.1955 3.05936 9.62137 3.9864 9.62137 4.96937C9.62137 5.95235 9.1955 6.87753 8.42271 7.57593L5.50002 10.2109L2.57802 7.57465C1.80527 6.8775 1.37937 5.95235 1.37937 4.9681C1.37937 3.98372 1.80524 3.05869 2.57802 2.3603C3.3576 1.65942 4.39615 1.2727 5.50002 1.2727L5.50005 1.27274ZM5.50002 0.0131836C4.094 0.0131836 2.68652 0.496885 1.61416 1.4648C-0.531707 3.40063 -0.531707 6.53863 1.61416 8.47459L5.50002 11.9779L9.38587 8.47331C11.5317 6.53872 11.5317 3.40012 9.38587 1.4648C8.31369 0.496885 6.90687 0.0131836 5.50002 0.0131836Z" fill="#0C252F"/>
<path d="M5.50015 3.47612C5.95895 3.47612 6.39039 3.63981 6.71457 3.93653C7.38495 4.55114 7.38495 5.54998 6.71457 6.16396C6.38972 6.46117 5.95895 6.62437 5.50015 6.62437C5.04135 6.62437 4.61058 6.46068 4.28573 6.16396C3.61536 5.54935 3.61536 4.55051 4.28573 3.93653C4.61058 3.63994 5.04205 3.47612 5.50015 3.47612ZM5.50015 2.84631C4.88471 2.84631 4.2693 3.06174 3.80003 3.49122C2.86109 4.35206 2.86109 5.74834 3.80003 6.60915C4.26982 7.03987 4.88391 7.25405 5.50015 7.25405C6.11626 7.25405 6.731 7.03862 7.20028 6.60915C8.13851 5.7483 8.13851 4.35203 7.20028 3.49122C6.73114 3.0611 6.11573 2.84631 5.50015 2.84631Z" fill="#0C252F"/>
</svg>
