<svg width="32" height="36" viewBox="0 0 32 36" fill="none" xmlns="http://www.w3.org/2000/svg">
<path fill-rule="evenodd" clip-rule="evenodd" d="M11.6878 32.6752C12.6039 32.6752 13.3497 33.4068 13.3497 34.3062C13.3497 35.2052 12.604 35.9371 11.6878 35.9371H5.04265C4.37406 35.9371 3.72191 35.8076 3.11126 35.5562C2.51675 35.316 1.98564 34.9677 1.52617 34.5249C1.06946 34.0794 0.706342 33.5608 0.455728 32.9828C0.191704 32.3808 0.0596924 31.7434 0.0596924 31.0873V4.96129C0.0596924 4.29976 0.191704 3.65978 0.452987 3.05774C0.703594 2.47429 1.06396 1.95039 1.51796 1.50216C1.97741 1.05395 2.50848 0.700274 3.10306 0.454632C3.71921 0.200609 4.37135 0.0683594 5.04272 0.0683594H11.6879C12.604 0.0683594 13.3498 0.800208 13.3498 1.69931C13.3498 2.60107 12.604 3.33026 11.6879 3.33026H5.04272C4.12659 3.33026 3.38083 4.06211 3.38083 4.96122V31.0872C3.38083 31.9621 4.12656 32.6751 5.04272 32.6751L11.6878 32.6752ZM31.2117 16.5786C31.6629 16.8784 31.952 17.3643 31.952 18.0016C31.952 18.6443 31.6629 19.1278 31.2117 19.4276L26.08 24.4635C25.3675 25.1603 24.2998 25.1603 23.5898 24.4635C22.8773 23.7642 22.8773 22.7164 23.5898 22.0199L25.9013 19.749H14.1605C13.0928 19.749 12.38 19.0521 12.38 18.0017C12.38 16.9569 13.0928 16.2574 14.1605 16.2574H25.9013L23.5898 13.9891C22.8773 13.2899 22.8773 12.2421 23.5898 11.5426C24.2998 10.8434 25.3675 10.8434 26.08 11.5426L31.2117 16.5786Z" fill="#0C252F"/>
</svg>
