<svg width="283" height="284" viewBox="0 0 283 284" fill="none" xmlns="http://www.w3.org/2000/svg">
<path d="M277.859 124.312C275.606 122.874 257.843 112.237 250.806 108.993L242.08 87.8319C244.669 80.8343 249.651 61.226 250.524 57.8117C251.235 54.6538 250.278 51.3515 247.991 49.0662L234.227 35.3546C231.951 33.053 228.652 32.0919 225.499 32.8157C222.91 33.4091 202.978 38.459 195.545 41.2794L174.432 32.5339C171.365 25.762 161.032 8.41098 159.146 5.42035H159.149C157.454 2.63709 154.435 0.938317 151.182 0.93367H131.815C128.583 0.935997 125.576 2.59526 123.849 5.33426C122.414 7.5916 111.8 25.3942 108.563 32.4478L87.4499 41.1933C80.4679 38.5986 60.9033 33.6047 57.4967 32.7296C54.3458 32.0175 51.0509 32.9763 48.7707 35.2708L35.0896 49.0659C32.7932 51.3464 31.8343 54.6533 32.5564 57.8114C33.1485 60.4061 38.1871 80.3824 41.0013 87.8316L32.2753 108.992C25.5186 112.067 8.20623 122.422 5.22226 124.312C2.44522 126.011 0.750242 129.036 0.745605 132.296V151.679C0.747927 154.918 2.40349 157.932 5.13637 159.663C7.38867 161.101 25.1515 171.739 32.1894 174.982L40.9154 196.143C38.3264 203.141 33.3437 222.749 32.4705 226.164V226.161C31.76 229.319 32.7167 232.621 35.0061 234.909L48.6871 248.621C50.9603 250.922 54.2621 251.883 57.4131 251.16C60.0021 250.566 79.9337 245.516 87.3663 242.696L108.48 251.441C111.547 258.213 121.88 275.564 123.765 278.555H123.763C125.467 281.375 128.525 283.088 131.815 283.07H151.155C154.387 283.067 157.394 281.406 159.121 278.667C160.556 276.409 171.17 258.607 174.407 251.553L195.52 242.808C202.502 245.402 222.067 250.396 225.473 251.271H225.471C228.622 251.983 231.917 251.025 234.199 248.732L247.88 235.021C250.177 232.74 251.136 229.433 250.414 226.275C249.822 223.68 244.783 203.704 241.969 196.255L250.695 175.094C257.451 172.02 274.764 161.664 277.748 159.775C280.562 158.067 282.271 155.004 282.252 151.706V132.296C282.278 129.05 280.613 126.022 277.859 124.312L277.859 124.312ZM141.5 203.421C125.233 203.405 109.636 196.915 98.1427 185.374C86.6514 173.834 80.2032 158.191 80.2175 141.887C80.2338 125.584 86.7097 109.953 98.2241 98.4332C109.739 86.9139 125.347 80.4512 141.614 80.4679C157.881 80.4819 173.478 86.9746 184.971 98.5124C196.462 110.053 202.913 125.696 202.896 141.999C202.859 158.298 196.376 173.916 184.867 185.43C173.357 196.943 157.762 203.412 141.5 203.421V203.421Z" fill="#0C252F"/>
</svg>
