<svg width="15" height="15" viewBox="0 0 15 15" fill="none" xmlns="http://www.w3.org/2000/svg">
<path d="M14.6046 5.26963L9.99142 4.58937L7.86223 0.222234C7.83005 0.155574 7.78003 0.099405 7.71788 0.060117C7.65573 0.020829 7.58395 0 7.51069 0C7.43743 0 7.36564 0.020829 7.30349 0.060117C7.24134 0.099405 7.19133 0.155574 7.15914 0.222234L5.01669 4.58937L0.396827 5.26123C0.311308 5.27369 0.230939 5.31014 0.164824 5.36648C0.0987078 5.42282 0.049487 5.49678 0.0227357 5.57999C-0.00401566 5.66321 -0.00722846 5.75235 0.0134611 5.83732C0.0341506 5.92228 0.0779158 5.99969 0.1398 6.06076L3.48945 9.36802L2.69515 14.108C2.68218 14.1869 2.69118 14.2679 2.72113 14.3419C2.75108 14.4158 2.8008 14.4799 2.8647 14.5268C2.92861 14.5738 3.00416 14.6017 3.08289 14.6075C3.16161 14.6134 3.24039 14.5969 3.31036 14.5599L7.50405 12.3226L11.706 14.5599C11.7757 14.5946 11.8535 14.6093 11.9309 14.6024C12.0083 14.5955 12.0823 14.5671 12.1449 14.5205C12.2075 14.4739 12.2562 14.4108 12.2859 14.3381C12.3155 14.2654 12.3249 14.1858 12.313 14.108L11.5187 9.36802L14.8617 6.06747C14.9231 6.00634 14.9664 5.92906 14.9868 5.84434C15.0072 5.75962 15.0039 5.67081 14.9772 5.5879C14.9505 5.50499 14.9014 5.43128 14.8356 5.37505C14.7698 5.31883 14.6898 5.28232 14.6046 5.26963Z" fill="#FFE04C"/>
</svg>
