<svg width="15" height="15" viewBox="0 0 15 15" fill="none" xmlns="http://www.w3.org/2000/svg">
<path d="M0.46312 5.71655L0.469 5.72346M0.46312 5.71655L0.469 5.72346M0.46312 5.71655L0.46312 5.71656L0.469 5.72346M0.46312 5.71655L0.469 5.72346M9.54199 4.80849L9.65756 5.04555L9.91848 5.08402L14.4668 5.75471L11.1674 9.01221L10.9826 9.19461L11.0255 9.45065L11.7947 14.0406L7.73904 11.8812L7.50382 11.756L7.2687 11.8814L3.21264 14.0453L3.98257 9.45065L4.02548 9.19462L3.84074 9.01222L0.533315 5.74664L5.08865 5.08416L5.34949 5.04623L5.46558 4.80959L7.51038 0.641495L9.54199 4.80849Z" fill="#FFE04C" stroke="#00467D"/>
</svg>
