<svg width="13" height="8" viewBox="0 0 13 8" fill="none" xmlns="http://www.w3.org/2000/svg">
<path d="M12.7935 2.33118L6.6231 0.0295508C6.54106 0.00374024 6.45891 0.00374024 6.37687 0.0295508L0.206491 2.33118C0.0833749 2.3829 0.0012207 2.49926 0.0012207 2.62854C0.0012207 2.75781 0.0832594 2.87417 0.206491 2.92591L2.55969 3.80517V6.31381C2.55969 6.44308 2.64173 6.55944 2.76496 6.61118L6.36307 7.95599C6.40415 7.9689 6.44511 7.9818 6.48619 7.9818C6.52727 7.9818 6.56823 7.9689 6.60931 7.95599L10.2074 6.61118C10.3305 6.55945 10.4127 6.44309 10.4127 6.31381V3.79236L11.5619 3.36563V4.51643C11.3704 4.60698 11.2473 4.80088 11.2473 5.00779C11.2473 5.2147 11.3704 5.40861 11.5619 5.49915L11.2883 6.08105C11.2199 6.21031 11.3293 6.35259 11.4661 6.35259H12.2597C12.4102 6.35259 12.5059 6.21031 12.4375 6.08105L12.1502 5.49915C12.328 5.4086 12.4648 5.2147 12.4648 5.00779C12.4648 4.78797 12.3417 4.60697 12.1502 4.51643V3.14581L12.7795 2.91309C12.9027 2.86136 12.9848 2.745 12.9848 2.61572C12.9848 2.48635 12.9163 2.36999 12.7932 2.33117L12.7935 2.33118ZM6.50003 0.663189L11.7673 2.62862L6.50003 4.58106L1.23272 2.61563L6.50003 0.663189ZM9.76997 6.09391L6.50003 7.30936L3.2301 6.09391L3.23021 4.03791L6.37679 5.21464C6.41787 5.22755 6.45883 5.24045 6.49991 5.24045C6.54098 5.24045 6.58194 5.22755 6.62302 5.21464L9.7696 4.03791L9.76997 6.09391Z" fill="#0C252F"/>
</svg>
