<svg width="116" height="76" viewBox="0 0 116 76" fill="none" xmlns="http://www.w3.org/2000/svg">
<path d="M58.0001 53.2349C55.8239 53.2349 53.7684 52.8719 51.7128 52.0261L22.9358 41.1442V59.0395C22.9358 61.3363 24.2662 63.3929 26.4423 64.2385L53.164 74.7574C56.3075 75.9662 59.6936 75.9662 62.8373 74.7574L89.559 64.2375C91.7352 63.3908 93.0656 61.3353 93.0656 59.0384V41.1442L64.2886 52.1479C62.233 52.872 60.1774 53.235 58.0003 53.235L58.0001 53.2349Z" fill="#0C252F"/>
<path d="M113.741 20.7098L61.7481 0.879625C59.3296 -0.0878047 56.6696 -0.0878047 54.3727 0.879625L2.37952 20.7098C0.082641 21.5565 0.082641 24.8209 2.37952 25.6675L54.3727 45.4977C56.7913 46.4651 59.4513 46.4651 61.7481 45.4977L104.672 29.1741V41.1442C102.739 42.1107 101.53 43.9249 101.53 46.2218C101.53 48.3979 102.738 50.3329 104.553 51.3003L101.772 57.3463C101.168 58.6767 102.135 60.1269 103.464 60.1269L111.203 60.1279C112.654 60.1279 113.5 58.6768 112.895 57.3473L110.115 51.3013C111.929 50.3339 113.138 48.3991 113.138 46.2227C113.138 44.0466 111.929 42.1116 110.115 41.1442L110.114 27.1175L113.741 25.787C116.039 24.8206 116.039 21.5554 113.741 20.7095L113.741 20.7098Z" fill="#0C252F"/>
</svg>
