<svg width="44" height="37" viewBox="0 0 44 37" fill="none" xmlns="http://www.w3.org/2000/svg">
<path d="M41.8308 16.7584C40.6733 16.7584 39.767 17.6543 39.767 18.7995V32.8374H4.18231V18.7501C4.18231 17.6053 3.27644 16.709 2.11856 16.709C0.961061 16.709 0.0548096 17.6049 0.0548096 18.7501V34.8787C0.0548096 36.0235 0.960678 36.9198 2.11856 36.9198H41.8312C42.9887 36.9198 43.895 36.0239 43.895 34.8787L43.8946 18.7501C43.8946 17.6546 42.9887 16.7587 41.8312 16.7587L41.8308 16.7584Z" fill="#0C252F"/>
<path d="M23.3593 0.678969C23.3091 0.629286 23.2588 0.579604 23.158 0.529508C23.1077 0.529508 23.1077 0.479824 23.0068 0.430142C22.705 0.181317 22.3023 0.081543 21.8996 0.081543C21.648 0.081543 21.3458 0.131227 21.0942 0.231005C20.8426 0.33037 20.591 0.47983 20.3897 0.629291L10.3229 10.6845C9.92022 11.0827 9.71887 11.6301 9.71887 12.1778C9.71887 12.7255 9.97046 13.1735 10.3229 13.5217C10.7256 13.92 11.1786 14.1191 11.7826 14.1191C12.3866 14.1191 12.8898 13.92 13.2422 13.5217L19.7855 7.00054V27.709C19.7855 28.8538 20.6913 29.7501 21.8492 29.7501C23.0067 29.7501 23.913 28.8541 23.913 27.709L23.9126 7.00159L30.6069 13.5227C31.0096 13.921 31.4626 14.1202 32.0666 14.1202C32.6706 14.1202 33.1738 13.921 33.5262 13.5227C33.929 13.1245 34.1303 12.5771 34.1303 12.0294C34.1303 11.4817 33.8787 11.0337 33.5262 10.6855L23.3593 0.678969Z" fill="#0C252F"/>
</svg>
