<svg width="100" height="84" viewBox="0 0 100 84" fill="none" xmlns="http://www.w3.org/2000/svg">
<path d="M98.173 68.0859L59.0167 5.32003C58.0695 3.78487 56.7459 2.517 55.1715 1.63658C53.597 0.756156 51.8238 0.29234 50.0199 0.28908C48.216 0.28582 46.4412 0.743224 44.8636 1.61795C43.286 2.49268 41.9578 3.75575 41.005 5.28748L1.78438 68.1576C0.872172 69.7569 0.392476 71.5663 0.392578 73.4074C0.39268 75.2485 0.872577 77.0578 1.78496 78.657C2.69735 80.2561 4.01072 81.5899 5.59562 82.5269C7.18052 83.4638 8.98222 83.9715 10.8231 84H89.1769C91.0243 83.9702 92.8318 83.4578 94.4201 82.5139C96.0084 81.5699 97.3223 80.2271 98.2315 78.6187C99.1407 77.0103 99.6137 75.1921 99.6034 73.3445C99.5931 71.4969 99.1 69.6841 98.173 68.0859V68.0859ZM50.0291 70.3042C48.9243 70.2997 47.8629 69.874 47.0611 69.1139C46.2593 68.3539 45.7775 67.3167 45.714 66.2137C45.6505 65.1108 46.01 64.0251 46.7193 63.178C47.4285 62.331 48.4341 61.7863 49.531 61.655C50.1193 61.5846 50.7157 61.6353 51.2836 61.8042C51.8515 61.973 52.3788 62.2563 52.833 62.6366C53.2873 63.017 53.6588 63.4863 53.9248 64.0156C54.1908 64.545 54.3456 65.1232 54.3797 65.7147C54.4137 66.3062 54.3263 66.8984 54.1229 67.4548C53.9194 68.0112 53.6042 68.52 53.1966 68.95C52.789 69.38 52.2977 69.7219 51.7529 69.9548C51.2082 70.1877 50.6215 70.3066 50.0291 70.3042V70.3042ZM54.1801 36.9208L52.9344 51.2456C52.8807 52.5939 52.5855 53.9216 52.0629 55.1656C51.8574 55.5685 51.5455 55.9074 51.161 56.1456C50.7765 56.3838 50.3341 56.5121 49.8819 56.5167C49.4296 56.5213 48.9848 56.4019 48.5955 56.1716C48.2063 55.9412 47.8876 55.6087 47.6739 55.2101C47.1754 53.9222 46.8824 52.564 46.8059 51.1851L45.8763 37.2705C45.6929 34.4754 44.7399 29.946 46.8777 27.6696C48.5045 25.9235 52.3604 25.6193 53.5445 28.0455C54.5379 30.8956 54.7573 33.9583 54.1801 36.9208V36.9208Z" fill="#E6444F"/>
</svg>
