<svg width="24" height="24" viewBox="0 0 24 24" fill="none" xmlns="http://www.w3.org/2000/svg">
<path fill-rule="evenodd" clip-rule="evenodd" d="M11.9988 0.0356445C5.39824 0.0356445 0.0361328 5.39758 0.0361328 11.9983C0.0361328 18.6018 5.39807 23.9639 11.9988 23.9639C18.5994 23.9639 23.9644 18.602 23.9644 11.9983C23.9644 5.39718 18.5997 0.0356445 11.9988 0.0356445V0.0356445ZM12.5425 1.30822C12.8984 1.41632 13.253 1.63321 13.6094 1.96805C14.1468 2.47291 14.6651 3.24332 15.1047 4.21986C15.2541 4.55157 15.3938 4.9073 15.5239 5.28321H12.5427L12.5425 1.30822ZM11.455 1.30844V5.28337H8.47471C8.60479 4.90725 8.74474 4.55155 8.89389 4.22002C9.33348 3.24326 9.85222 2.47308 10.3894 1.96821C10.7456 1.63359 11.0995 1.4167 11.455 1.30862L11.455 1.30844ZM9.3828 1.43897C8.81379 2.05057 8.32152 2.84229 7.90232 3.77352C7.69127 4.2425 7.49884 4.74736 7.32684 5.2834H3.43936C4.91289 3.40657 6.9913 2.02795 9.38309 1.43897H9.3828ZM14.6162 1.4392C17.0075 2.0284 19.0862 3.40686 20.5599 5.28316H16.6715C16.4997 4.74713 16.3073 4.24226 16.0962 3.77329C15.6772 2.84228 15.1852 2.05057 14.616 1.43897L14.6162 1.4392ZM2.68738 6.37097H7.01759C6.63474 7.89675 6.40577 9.62085 6.36787 11.4548H1.13696C1.22802 9.59909 1.78244 7.86695 2.68743 6.37097H2.68738ZM8.14347 6.37097H11.455V11.4548H7.45585C7.49667 9.59748 7.7454 7.86311 8.14353 6.37097H8.14347ZM12.5425 6.37097H15.8548C16.2526 7.86288 16.5009 9.59748 16.5418 11.4548H12.5426L12.5425 6.37097ZM16.9806 6.37097H21.3122C22.2176 7.86672 22.7725 9.59909 22.8636 11.4548H17.6297C17.5918 9.62085 17.3633 7.89698 16.9806 6.37097ZM1.13662 12.5421H6.36753C6.40476 14.3489 6.62724 16.0489 6.9998 17.5579H2.64535C1.76527 16.0777 1.2263 14.3698 1.13662 12.5421ZM7.45528 12.5421H11.4544V17.5579H8.12429C7.73696 16.0812 7.49541 14.3713 7.45505 12.5421H7.45528ZM12.542 12.5421H16.5412C16.501 14.3713 16.2597 16.0813 15.8728 17.5579H12.542L12.542 12.5421ZM17.6292 12.5421H22.8631C22.7733 14.3698 22.2342 16.0777 21.3534 17.5579H21.3503H16.9976C17.3697 16.0489 17.592 14.3489 17.6292 12.5421H17.6292ZM3.38424 18.6454H7.30422C7.48162 19.2075 7.68146 19.7363 7.90146 20.2255C8.32065 21.157 8.81295 21.9487 9.38217 22.5605C6.96081 21.9644 4.86064 20.5586 3.38389 18.6454H3.38424ZM8.4499 18.6454H11.4544V22.691C11.0989 22.5829 10.745 22.366 10.3888 22.0314C9.85163 21.5266 9.33308 20.7562 8.89327 19.7792C8.7347 19.4268 8.58645 19.0476 8.44986 18.6454H8.4499ZM12.542 18.6454H15.5474C15.4108 19.0476 15.2627 19.4268 15.1042 19.7792C14.6646 20.7559 14.1462 21.5263 13.6089 22.0312C13.2525 22.3661 12.8981 22.5829 12.542 22.691L12.542 18.6454ZM16.6928 18.6454H20.6137C19.1367 20.5581 17.0363 21.9637 14.6154 22.5601C15.1846 21.9485 15.6767 21.1565 16.0956 20.2253C16.3156 19.7361 16.5153 19.2073 16.6926 18.6452L16.6928 18.6454Z" fill="#0C252F"/>
</svg>
